<?xml version="1.0" encoding="utf-8"?>
<!-- Generator: Adobe Illustrator 24.0.0, SVG Export Plug-In . SVG Version: 6.00 Build 0)  -->
<svg version="1.1" id="Layer_1" xmlns="http://www.w3.org/2000/svg" xmlns:xlink="http://www.w3.org/1999/xlink" x="0px" y="0px"
	 viewBox="0 0 512 512" style="enable-background:new 0 0 512 512;" xml:space="preserve">
<style type="text/css">
	.st0{fill:#3971FB;}
	.st1{fill:#F3F3F3;}
	.st2{fill:#83B1FF;}
	.st3{fill:black;}
	.st4{fill:#BADAFF;}
</style>
<g id="g3378" transform="matrix(0.71245993,0,0,0.71194024,3197.8072,-317.11486)">
	<path id="path3337" class="st0" d="M-4277.8,699.8c-76.4,0-88.4,40-100.2,83c-0.6,7.3-1,14.7-1,22.2c0,33.9,6.7,66.2,18.9,95.6
		c0.8-7.8,8.2-65.7,55.9-73.1c1.7-0.3,3.4-0.4,5.2-0.4c43.1,0,102.2,76.3,102.2,76.3s72.6,85.3,143.7,93.5
		c44.5,5.1,93.8-14.9,126.5-45.7c-40.6,56.2-104,94.9-176.6,102.4c110.4-11.4,199.4-94.7,219.6-202.4c0,0-0.8,1.7-2.4,4.5
		c-0.2,0.4-0.4,0.8-0.7,1.2c-0.1,0.2-0.2,0.4-0.4,0.6c0,0.1-0.1,0.1-0.1,0.2c-0.7,1.3-1.6,2.7-2.6,4.2c-0.5,0.8-1.1,1.6-1.6,2.5
		c0,0,0,0,0,0.1c-0.3,0.4-0.6,0.8-0.9,1.2c-0.1,0.2-0.2,0.3-0.4,0.5c-0.2,0.3-0.4,0.6-0.6,0.8c-0.2,0.3-0.5,0.7-0.7,1
		c-0.1,0.1-0.2,0.3-0.3,0.4c-0.1,0.2-0.3,0.4-0.4,0.5c-0.2,0.3-0.4,0.6-0.6,0.9c-0.4,0.5-0.7,1-1.1,1.4c-0.3,0.5-0.7,0.9-1.1,1.4
		c0,0,0,0.1-0.1,0.1c-0.3,0.4-0.6,0.7-0.9,1.1c-0.5,0.6-1,1.3-1.5,1.9c0,0-0.1,0.1-0.1,0.1c-0.4,0.5-0.8,0.9-1.2,1.4
		c-0.2,0.2-0.4,0.4-0.6,0.6c-0.3,0.3-0.5,0.6-0.8,0.9c-0.3,0.4-0.7,0.8-1,1.2c-0.1,0.1-0.2,0.2-0.3,0.4c-0.2,0.2-0.4,0.4-0.6,0.6
		c-0.3,0.3-0.6,0.6-0.8,0.9c-0.3,0.4-0.7,0.7-1,1.1c-0.1,0.2-0.3,0.3-0.4,0.5c-0.2,0.2-0.4,0.5-0.7,0.7c-0.1,0.1-0.2,0.2-0.3,0.3
		c-0.6,0.6-1.1,1.1-1.7,1.7c0,0-0.1,0.1-0.1,0.1c-0.1,0.1-0.2,0.2-0.3,0.3c-0.2,0.2-0.5,0.5-0.7,0.7c-0.3,0.3-0.6,0.6-0.9,0.8
		c-0.1,0.1-0.1,0.1-0.2,0.2c-0.5,0.4-1,0.9-1.5,1.3c-0.3,0.2-0.5,0.5-0.8,0.7c-0.3,0.3-0.6,0.5-0.9,0.8c-0.5,0.4-1,0.8-1.4,1.2
		c-0.1,0.1-0.2,0.2-0.3,0.3c-0.3,0.2-0.6,0.5-0.9,0.7c-0.3,0.3-0.6,0.5-1,0.8c-0.5,0.4-1,0.8-1.5,1.2c-0.1,0.1-0.2,0.2-0.4,0.3
		c-0.1,0-0.1,0.1-0.2,0.1c-0.6,0.4-1.2,0.8-1.8,1.3c-0.5,0.4-1.1,0.8-1.6,1.1c-0.1,0.1-0.2,0.2-0.3,0.2c-0.3,0.2-0.7,0.4-1,0.7
		c-0.3,0.2-0.7,0.4-1,0.7c-0.6,0.4-1.2,0.7-1.7,1.1c-0.1,0.1-0.2,0.1-0.3,0.2c-0.1,0.1-0.2,0.1-0.3,0.2c-0.5,0.3-1.1,0.6-1.6,1
		c-0.1,0-0.1,0.1-0.2,0.1c-0.1,0.1-0.3,0.1-0.4,0.2c-0.6,0.3-1.2,0.7-1.8,1c-0.7,0.4-1.3,0.7-2,1.1c-0.1,0-0.1,0.1-0.2,0.1
		c-0.6,0.3-1.3,0.6-2,1c-0.1,0.1-0.2,0.1-0.3,0.2c-0.1,0-0.2,0.1-0.3,0.1c-0.3,0.1-0.6,0.3-0.9,0.4c0,0,0,0-0.1,0
		c-0.4,0.2-0.7,0.3-1.1,0.5c-0.2,0.1-0.3,0.1-0.5,0.2c-0.4,0.2-0.9,0.4-1.3,0.6c-0.1,0-0.2,0.1-0.3,0.1c-0.5,0.2-1,0.4-1.5,0.6
		c0,0-0.1,0-0.1,0c-0.4,0.1-0.8,0.3-1.1,0.4c-0.2,0.1-0.3,0.1-0.5,0.2c-0.2,0.1-0.5,0.2-0.7,0.3c-0.3,0.1-0.6,0.2-1,0.3
		c-0.5,0.2-1,0.3-1.6,0.5c0,0-0.1,0-0.1,0c-0.4,0.1-0.8,0.2-1.2,0.4c-0.2,0.1-0.4,0.1-0.6,0.2c-0.2,0.1-0.5,0.1-0.7,0.2
		c-0.3,0.1-0.7,0.2-1,0.3c-0.6,0.2-1.2,0.3-1.8,0.5c-0.6,0.1-1.2,0.3-1.8,0.4c-1.1,0.2-2.2,0.5-3.4,0.7c-0.3,0.1-0.6,0.1-0.9,0.2
		c-7.5,1.3-15.6,1.6-24.3,0.7C-4065.8,904.9-4133,802-4133,802s-0.4-0.6-1-1.5c0,0-0.1-0.1-0.1-0.1c-0.5-0.7-1.1-1.7-1.9-2.9
		c-1-1.4-2.1-3-3.5-5.1c0,0-0.1-0.1-0.1-0.1c-4.7-6.9-15.2-21.5-29.9-37.1c-8.2-9.3-19.5-21.4-29.9-29.4c-0.6-0.5-1.2-0.9-1.8-1.4
		c-1.4-1-2.8-2-4.1-2.8c-0.3-0.2-0.5-0.3-0.8-0.5c-0.3-0.2-0.6-0.4-0.9-0.6c-18.8-10.9-23.6-14.4-45.7-19
		C-4259.2,700.1-4270.2,699.8-4277.8,699.8L-4277.8,699.8z"/>
	<path id="path3211" class="st1" d="M-4129.3,555c-20.3,0-40.1,2.4-59.1,7c0.2,0,0.4-0.1,0.6-0.1c47.9-6,121.7,21.5,153.9,53.7
		c46.2,46.2,37,58.4,89.7,107.3c30.1,27.9,54.8,12.7,55.1,12.5C-3919.2,631.2-4015.4,555-4129.3,555L-4129.3,555z"/>
	<path id="path3269" class="st2" d="M-4225.6,603.3c-1.1,0-2.1,0-3.2,0c-0.3,0-0.6,0-1,0c-0.1,0-0.3,0-0.4,0c0,0-0.1,0-0.1,0
		c-0.8,0-1.6,0.1-2.5,0.1c-0.7,0-1.3,0.1-2,0.1c-0.1,0-0.3,0-0.4,0c-0.1,0-0.2,0-0.3,0c-0.8,0.1-1.6,0.1-2.4,0.2c0,0,0,0-0.1,0
		c0,0-0.1,0-0.1,0c-0.9,0.1-1.7,0.1-2.5,0.2c-0.2,0-0.3,0-0.5,0c-1.8,0.2-3.5,0.4-5.3,0.6c-0.1,0-0.3,0-0.4,0.1
		c-0.2,0-0.5,0.1-0.7,0.1c-0.9,0.1-1.8,0.3-2.7,0.4c-0.9,0.2-1.8,0.3-2.7,0.5c-0.3,0.1-0.6,0.1-0.9,0.2c-0.7,0.1-1.4,0.3-2.1,0.4
		c-0.3,0.1-0.5,0.1-0.8,0.2c-0.5,0.1-1.1,0.2-1.6,0.4c-0.5,0.1-1,0.2-1.4,0.3c-0.2,0-0.3,0.1-0.5,0.1c-0.7,0.2-1.4,0.3-2.1,0.5
		c-0.3,0.1-0.6,0.2-0.9,0.2c-0.5,0.1-1,0.3-1.5,0.4c0,0,0,0-0.1,0c-0.9,0.2-1.8,0.5-2.6,0.8c-0.1,0-0.1,0-0.2,0
		c-0.8,0.2-1.6,0.5-2.4,0.8c-0.1,0-0.2,0.1-0.3,0.1c-0.7,0.2-1.5,0.5-2.2,0.7c-0.1,0-0.1,0-0.2,0.1c-0.8,0.3-1.6,0.6-2.4,0.9
		c-1.5,0.6-3,1.1-4.4,1.7c-0.1,0.1-0.3,0.1-0.4,0.2c-0.7,0.3-1.3,0.6-2,0.9c0,0,0,0-0.1,0c-0.6,0.3-1.2,0.5-1.8,0.8
		c-0.1,0.1-0.2,0.1-0.3,0.2c-0.6,0.3-1.2,0.6-1.8,0.8c-0.2,0.1-0.5,0.2-0.7,0.4c-1.2,0.6-2.3,1.2-3.4,1.7c-0.2,0.1-0.4,0.2-0.6,0.3
		c-0.4,0.2-0.8,0.4-1.2,0.7c-0.6,0.3-1.2,0.7-1.7,1c0,0-0.1,0.1-0.1,0.1c-1.1,0.6-2.1,1.3-3.1,1.9c-0.5,0.3-1,0.6-1.5,1
		c-0.5,0.3-1,0.6-1.4,0.9c-0.5,0.3-0.9,0.6-1.4,0.9c-0.4,0.3-0.9,0.6-1.3,0.9c-0.4,0.3-0.8,0.6-1.2,0.9c-0.4,0.3-0.8,0.6-1.1,0.9
		c-0.2,0.2-0.5,0.4-0.7,0.5c-0.3,0.2-0.5,0.4-0.8,0.6c-0.1,0.1-0.3,0.2-0.4,0.3c-0.4,0.3-0.8,0.6-1.2,1c-0.5,0.5-1.1,0.9-1.5,1.3
		c-0.5,0.4-0.9,0.8-1.3,1.2c0,0,0,0,0,0c-0.2,0.2-0.4,0.4-0.6,0.6c-38,40.3-62.8,93.2-67.4,151.8c12-43.9,23-85.4,100.8-85.4
		c7.6,0,18.6,0.2,25.1,1.7c22.1,4.6,26.9,8.2,45.7,19c0.3,0.2,0.6,0.4,0.9,0.6c0.3,0.2,0.5,0.3,0.8,0.5c1.3,0.8,2.7,1.8,4.1,2.8
		c0.6,0.4,1.2,0.9,1.8,1.4c10.3,8,21.7,20.1,29.9,29.4c14.7,15.6,25.2,30.2,29.9,37.1c0,0,0.1,0.1,0.1,0.1c1.4,2,2.6,3.6,3.5,5.1
		c0.8,1.2,1.5,2.2,1.9,2.9c0,0,0.1,0.1,0.1,0.1c0.6,0.9,1,1.5,1,1.5s67.1,102.9,148.9,111.4c8.7,0.9,16.8,0.6,24.3-0.7
		c0.3-0.1,0.6-0.1,0.9-0.2c1.1-0.2,2.2-0.4,3.4-0.7c0.6-0.1,1.2-0.3,1.8-0.4c0.6-0.2,1.2-0.3,1.8-0.5c0.3-0.1,0.7-0.2,1-0.3
		c0.2-0.1,0.5-0.1,0.7-0.2c0.2-0.1,0.4-0.1,0.6-0.2c0.4-0.1,0.8-0.2,1.2-0.4c0,0,0.1,0,0.1,0c0.5-0.2,1.1-0.3,1.6-0.5
		c0.3-0.1,0.6-0.2,1-0.3c0.2-0.1,0.5-0.2,0.7-0.3c0.2-0.1,0.3-0.1,0.5-0.2c0.4-0.1,0.8-0.3,1.1-0.4c0,0,0.1,0,0.1,0
		c0.5-0.2,1-0.4,1.5-0.6c0.1,0,0.2-0.1,0.3-0.1c0.4-0.2,0.9-0.4,1.3-0.6c0.2-0.1,0.3-0.1,0.5-0.2c0.4-0.2,0.7-0.3,1.1-0.5
		c0,0,0,0,0.1,0c0.3-0.1,0.6-0.3,0.9-0.4c0.1,0,0.2-0.1,0.3-0.1c0.1-0.1,0.2-0.1,0.3-0.2c0.7-0.3,1.3-0.6,2-1c0.1,0,0.1-0.1,0.2-0.1
		c0.7-0.3,1.4-0.7,2-1.1c0.6-0.3,1.2-0.7,1.8-1c0.1-0.1,0.3-0.1,0.4-0.2c0.1,0,0.1-0.1,0.2-0.1c0.6-0.3,1.1-0.6,1.6-1
		c0.1-0.1,0.2-0.1,0.3-0.2c0.1-0.1,0.2-0.1,0.3-0.2c0.6-0.4,1.2-0.7,1.7-1.1c0.3-0.2,0.7-0.4,1-0.7c0.3-0.2,0.7-0.4,1-0.7
		c0.1-0.1,0.2-0.2,0.3-0.2c0.6-0.4,1.1-0.8,1.6-1.1c0.6-0.4,1.2-0.8,1.8-1.3c0.1,0,0.1-0.1,0.2-0.1c0.1-0.1,0.2-0.2,0.4-0.3
		c0.5-0.4,1-0.8,1.5-1.2c0.3-0.3,0.6-0.5,1-0.8c0.3-0.2,0.6-0.5,0.9-0.7c0.1-0.1,0.2-0.2,0.3-0.3c0.5-0.4,1-0.8,1.4-1.2
		c0.3-0.3,0.6-0.5,0.9-0.8c0.3-0.2,0.5-0.5,0.8-0.7c0.5-0.4,1-0.9,1.5-1.3c0.1-0.1,0.1-0.1,0.2-0.2c0.3-0.3,0.6-0.6,0.9-0.8
		c0.2-0.2,0.5-0.5,0.7-0.7c0.1-0.1,0.2-0.2,0.3-0.3c0,0,0.1-0.1,0.1-0.1c0.6-0.6,1.2-1.1,1.7-1.7c0.1-0.1,0.2-0.2,0.3-0.3
		c0.2-0.2,0.5-0.5,0.7-0.7c0.1-0.2,0.3-0.3,0.4-0.5c0.4-0.4,0.7-0.7,1-1.1c0.3-0.3,0.6-0.6,0.8-0.9c0.2-0.2,0.4-0.4,0.6-0.6
		c0.1-0.1,0.2-0.2,0.3-0.4c0.4-0.4,0.7-0.8,1-1.2c0.3-0.3,0.5-0.6,0.8-0.9c0.2-0.2,0.4-0.4,0.6-0.6c0.4-0.5,0.8-0.9,1.2-1.4
		c0,0,0.1-0.1,0.1-0.1c0.5-0.6,1-1.3,1.5-1.9c0.3-0.4,0.6-0.7,0.9-1.1c0,0,0-0.1,0.1-0.1c0.4-0.5,0.7-0.9,1.1-1.4
		c0.4-0.5,0.7-1,1.1-1.4c0.2-0.3,0.4-0.6,0.6-0.9c0.1-0.2,0.3-0.4,0.4-0.5c0.1-0.1,0.2-0.3,0.3-0.4c0.2-0.3,0.5-0.7,0.7-1
		c0.2-0.3,0.4-0.6,0.6-0.8c0.1-0.2,0.2-0.3,0.4-0.5c0.3-0.4,0.6-0.8,0.9-1.2c0,0,0,0,0-0.1c0.6-0.9,1.1-1.7,1.6-2.5
		c1-1.5,1.9-2.9,2.6-4.2c0-0.1,0.1-0.1,0.1-0.2c0.1-0.2,0.2-0.4,0.4-0.6c0.2-0.4,0.5-0.8,0.7-1.2c1.6-2.8,2.4-4.5,2.4-4.5
		c2.8-15,4.3-30.5,4.3-46.3c0-3-0.1-5.9-0.2-8.8c0,0-0.1,0.1-0.2,0.3c-0.1,0.1-0.1,0.1-0.2,0.2c-0.1,0.1-0.1,0.1-0.2,0.2
		c-0.1,0.1-0.1,0.1-0.2,0.2c-0.1,0.1-0.2,0.2-0.3,0.3c-0.2,0.2-0.4,0.4-0.7,0.7c-0.1,0.1-0.2,0.2-0.3,0.3c-0.2,0.2-0.3,0.3-0.5,0.5
		c-0.1,0.1-0.2,0.2-0.3,0.3c-0.2,0.2-0.4,0.4-0.6,0.6c-0.1,0.1-0.2,0.2-0.4,0.3c-0.2,0.2-0.5,0.4-0.7,0.6c-0.4,0.3-0.8,0.7-1.3,1
		c-0.4,0.4-0.9,0.7-1.4,1.1c-0.5,0.4-1,0.8-1.6,1.1c-0.8,0.6-1.7,1.2-2.6,1.8c-0.3,0.2-0.6,0.4-1,0.6c-5.2,3.2-12.1,6.3-20.8,8.2
		c-0.5,0.1-1.1,0.2-1.7,0.3c-0.6,0.1-1.1,0.2-1.7,0.3c-1.1,0.2-2.3,0.4-3.5,0.5c-0.6,0.1-1.2,0.1-1.8,0.2c-1.2,0.1-2.5,0.2-3.8,0.3
		c0,0,0,0,0,0c-1.3,0.1-2.6,0.1-4,0.1c-0.7,0-1.4,0-2,0c-2.1,0-4.2-0.1-6.4-0.3c-2.2-0.2-4.4-0.4-6.7-0.7c0,0,0,0-0.1,0
		c-0.5-0.1-1-0.2-1.5-0.2c-0.3,0-0.6-0.1-1-0.1c-0.1,0-0.3,0-0.4-0.1c-0.7-0.1-1.3-0.2-2-0.3c-0.8-0.1-1.5-0.3-2.3-0.5
		c0,0-0.1,0-0.1,0c-0.8-0.2-1.6-0.3-2.4-0.5c0,0,0,0-0.1,0c-0.8-0.2-1.6-0.4-2.5-0.6c0,0,0,0,0,0c-0.8-0.2-1.7-0.4-2.6-0.7
		c-0.6-0.2-1.2-0.3-1.8-0.5c0,0,0,0,0,0c-0.6-0.2-1.2-0.4-1.8-0.6c-1-0.3-2.1-0.7-3.1-1.1c-0.2-0.1-0.3-0.1-0.5-0.2c0,0,0,0,0,0
		c-0.6-0.2-1.2-0.5-1.8-0.7c-1-0.4-2-0.8-3-1.3c-0.2-0.1-0.4-0.2-0.5-0.2c0,0,0,0,0,0c-0.6-0.3-1.2-0.6-1.7-0.8
		c-2.3-1.1-4.6-2.4-6.9-3.7c-1.1-0.7-2.3-1.4-3.4-2.1c-0.6-0.4-1.1-0.7-1.7-1.1c-2.8-1.9-5.6-3.9-8.4-6.1c-0.6-0.4-1.1-0.9-1.7-1.3
		c-1.1-0.9-2.2-1.8-3.3-2.8s-2.2-1.9-3.3-2.9c0,0,0,0,0,0c-0.5-0.5-1.1-1-1.6-1.5c0,0,0,0,0,0c-0.5-0.5-1.1-1-1.6-1.5
		c-1.6-1.5-3.3-3.1-4.9-4.7c-1.1-1.1-2.1-2.2-3.2-3.3c-0.5-0.6-1.1-1.1-1.6-1.7c0,0,0,0,0,0c-0.3-0.3-0.5-0.5-0.8-0.8
		c-0.5-0.6-1.1-1.2-1.6-1.8c-0.3-0.3-0.5-0.6-0.8-0.8c-3.7-4-7.4-8.2-11-12.6c0,0,0,0,0,0c-0.5-0.6-0.9-1.1-1.4-1.7
		c-1.6-1.9-3.2-3.9-4.8-5.9c-7.2-9-14.3-18.5-21.2-28c0,0,0,0,0,0c-2-2.7-4-5.5-6-8.2c0,0,0,0,0,0c-6-8.2-11.9-16.5-17.7-24.5
		c0,0,0,0,0,0c-2-2.7-3.9-5.3-5.9-7.9c0,0,0,0,0,0c-2.9-3.9-5.9-7.8-8.8-11.5c0,0,0,0,0,0c-4.9-6.3-9.8-12.3-14.7-17.9c0,0,0,0,0,0
		c-1.5-1.7-2.9-3.3-4.4-4.9c-1-1.1-2-2.1-3-3.1c0,0,0,0,0,0c-1-1-2-2-3-3c-0.5-0.5-1-1-1.5-1.5c-1-1-2-1.9-3-2.9c-1-0.9-2-1.9-3-2.7
		c-1-0.9-2-1.8-3-2.6c-0.5-0.4-1-0.8-1.5-1.3c-0.5-0.4-1-0.8-1.5-1.2c-7-5.6-14.1-10-21.3-12.9c-0.5-0.2-1-0.4-1.5-0.6c0,0,0,0,0,0
		c-0.5-0.2-1-0.4-1.5-0.5c-0.7-0.2-1.4-0.5-2.1-0.7c-0.1,0-0.2-0.1-0.3-0.1c-0.6-0.2-1.2-0.4-1.8-0.6c-0.2-0.1-0.4-0.1-0.6-0.2
		c-0.5-0.2-1-0.3-1.5-0.5c-0.3-0.1-0.6-0.2-0.9-0.3c-0.4-0.1-0.8-0.2-1.2-0.4c-0.4-0.1-0.8-0.2-1.2-0.4c-0.3-0.1-0.6-0.2-0.9-0.3
		c-0.5-0.1-1-0.3-1.5-0.4c-0.2-0.1-0.4-0.1-0.6-0.2c-0.6-0.2-1.2-0.3-1.8-0.5c-0.1,0-0.2-0.1-0.3-0.1c-0.2,0-0.3-0.1-0.5-0.1
		c-1.2-0.3-2.4-0.6-3.6-0.9c-0.1,0-0.2-0.1-0.3-0.1c-0.6-0.1-1.1-0.3-1.7-0.4c-0.2,0-0.4-0.1-0.6-0.1c-0.5-0.1-0.9-0.2-1.4-0.3
		c-0.7-0.2-1.3-0.3-2-0.5c-0.4-0.1-0.8-0.2-1.1-0.3c-0.3-0.1-0.5-0.1-0.8-0.2c-0.5-0.1-1-0.2-1.4-0.3c-0.3-0.1-0.6-0.1-0.9-0.2
		c-0.5-0.1-0.9-0.2-1.3-0.3c-0.1,0-0.2,0-0.2,0c-1.3-0.3-2.6-0.5-3.8-0.7c-0.1,0-0.2,0-0.3-0.1c-0.1,0-0.2,0-0.4-0.1
		c-0.6-0.1-1.2-0.2-1.8-0.3c0,0-0.1,0-0.1,0c-0.9-0.1-1.8-0.3-2.7-0.4c-0.2,0-0.5-0.1-0.7-0.1c-0.2,0-0.4-0.1-0.6-0.1
		c-0.9-0.1-1.7-0.2-2.6-0.4c-0.2,0-0.4,0-0.6-0.1c-0.8-0.1-1.5-0.2-2.3-0.3c-0.2,0-0.5-0.1-0.7-0.1c0,0,0,0,0,0
		c-0.2,0-0.3,0-0.5-0.1c-1-0.1-2-0.2-3-0.3c-1.1-0.1-2.2-0.2-3.3-0.3c-0.1,0-0.1,0-0.2,0c-0.3,0-0.7,0-1-0.1
		c-0.8-0.1-1.6-0.1-2.4-0.1c-1.8-0.1-3.6-0.2-5.3-0.2c-0.1,0-0.2,0-0.4,0c-0.5,0-1,0-1.5,0C-4223.8,603.3-4224.7,603.3-4225.6,603.3
		L-4225.6,603.3z"/>
	<path id="path3165" class="st3" d="M-4298.9,827.1c-1.8,0-3.5,0.1-5.2,0.4c-51.1,8-56,74-56,74c37.8,90.2,126.9,153.5,230.7,153.5
		c83.5,0,157.4-40.9,202.8-103.8c-32.6,30.7-81.9,50.8-126.5,45.7c-71.1-8.2-143.7-93.5-143.7-93.5S-4255.9,827.1-4298.9,827.1z"/>
	<path id="path3185" class="st4" d="M-4313,635.2c-4.9,2.2,62-65.4,125.2-73.3c47.9-6,121.7,21.5,153.9,53.7
		c46.2,46.2,37,58.4,89.7,107.3c30.3,28.2,55.2,12.5,55.2,12.5c5.5,19.4,10.3,40.6,9.7,60.7c0,0-24.2,31.2-79.8,16.3
		c-77.3-20.7-132.5-174.8-198.8-197.2C-4263.2,579.5-4313,635.2-4313,635.2z"/>
</g>
</svg>
